<svg xmlns="http://www.w3.org/2000/svg" fill="none" viewBox="0 0 88 48" xmlns:v="https://vecta.io/nano"><style><![CDATA[.B{fill-rule:evenodd}]]></style><g clip-path="url(#B)"><g fill="#f7931e" class="B"><path d="M0 18v-5.2h18.8l-.5 5.2h-5.8v20.1H7V18H0zm17 2.7l4.4-.6.3 2.8s1.7-2.7 4.4-2.7h3l-.3 5.2s-4.2-.7-5.6 1.4c-1 1.3-1 1.9-1 2.8v8.7h-5V20.7zm19.2 14.7c-2.4 0-2.6-2-2.6-2C33.6 31 36 31 36 31h4.4c0 2.6-1.6 4.4-4 4.4zM37.8 20c-5.7.4-7.5 2.5-7.5 2.5l1.7 3.3s2.7-1.7 5-1.7 3.5 1.7 3.5 2.7v1.4h-5c-1 0-2 .1-3 .5-1.6.6-3.6 1.9-3.6 4.7 0 4.8 5 5.3 5.7 5.3s4.8-.6 6-2.3c.1 0 .5 1.7.5 1.7h4.4v-12S45 20 37.8 20zm7.5.6l5.4-.3 4.2 11 4-10.7h5.5L57 38.1h-4.4l-7.4-17.5zm31 4.1l-4 5.6L72 28h-1.3l2.6-1.7-2.3.1-1.5-1.5 6.8-.1zm-4 10.1c-3.4 0-3.8-3.5-3.8-3.5 0-2.1 1.7-3.3 1.7-3.3-1 1.9-.5 3.4-.4 3.4H81V27c-.5-5.1-7.6-8.9-13.5-5.1a6.5 6.5 0 0 0-.8.6C60.4 28 64.3 34 64.3 34c-.2-4.5 4.7-5.8 5-5.9-2 .8-4 2.9-4 5.3s2.2 5.4 7 5.4 7.5-3.8 7.5-3.8l-3.4-2.4s-1 2.1-4.2 2.1z"/></g><mask id="A" width="6" height="27" x="83" y="12" maskUnits="userSpaceOnUse" mask-type="alpha"><path fill="#fff" d="M83 13h5v25.1h-5V13z" class="B"/></mask><g mask="url(#A)" class="B"><path fill="#f7931e" d="M88 13l-4.8.6v24.6h5V13z"/></g><g class="B"><path fill="#000" fill-opacity=".6" d="M33 43.8v4h-1v-4h-1v-1h1v-.3a2 2 0 0 1 .2-.9c.1-.2.3-.5.4-.6s.4-.3.6-.3.4-.1.7-.1c.2 0 .5 0 .8.1a3 3 0 0 1 .8.4l-.6.8c-.1-.1-.2-.1-.4-.2a1.1 1.1 0 0 0-.4-.1c-.2 0-.4.1-.6.2s-.2.4-.2.7v.3h1.3v1H33zm5.4 3.9c-.3.1-.7.2-1 .2s-.8-.1-1-.2-.6-.3-.8-.6a2.7 2.7 0 0 1-.5-.9c-.1-.3-.2-.7-.2-1s.1-.7.2-1 .3-.6.5-.9.5-.4.8-.6.7-.2 1-.2.8.1 1 .2.6.3.8.6.4.5.5.9.2.7.2 1-.1.7-.2 1a2.7 2.7 0 0 1-.5.9c-.2.2-.5.4-.8.6zm-1-.9c-.2 0-.5 0-.6-.1s-.3-.2-.4-.4-.2-.3-.3-.5-.1-.4-.1-.6 0-.4.1-.6a1.6 1.6 0 0 1 .3-.5 1.4 1.4 0 0 1 .4-.4c.2-.1.4-.1.6-.1s.5 0 .6.1a1.4 1.4 0 0 1 .4.4 1.6 1.6 0 0 1 .3.5c.1.2.1.4.1.6s0 .4-.1.6-.1.4-.3.5-.3.3-.4.4-.4.1-.6.1zm5-1.8v2.7H41v-5h1.2v.6a2.5 2.5 0 0 1 .2-.2 1.7 1.7 0 0 1 .3-.2c.1-.1.3-.1.4-.2a1.9 1.9 0 0 1 .5-.1 2.2 2.2 0 0 1 .3 0c.1 0 .2 0 .3.1l-.3 1.2a1.2 1.2 0 0 0-.3-.1h-.3c-.2 0-.3 0-.5.1a1.2 1.2 0 0 0-.4.2c-.1.1-.2.2-.3.4s-.1.3-.1.5zm7.3 2.7a5.1 5.1 0 0 0 1.1-.1 2.4 2.4 0 0 0 .8-.3 1.7 1.7 0 0 0 .6-.6c.1-.3.2-.6.2-1 0-.3-.1-.6-.2-.8a1.7 1.7 0 0 0-.4-.5 1.6 1.6 0 0 0-.5-.3C51 44 51 44 51 44c.1 0 .2 0 .3-.1a1.4 1.4 0 0 0 .4-.3 1.8 1.8 0 0 0 .3-.5c.1-.2.1-.4.1-.7s0-.5-.1-.7-.2-.4-.4-.6-.4-.3-.7-.4-.6-.1-1-.1h-2.4v7.1h2.4zm-1.2-4.3h1a1.8 1.8 0 0 0 .4 0c.1 0 .2-.1.3-.1a.8.8 0 0 0 .2-.3c.1-.1.1-.2.1-.4a.8.8 0 0 0-.4-.7c-.1-.1-.2-.1-.3-.1a2 2 0 0 0-.4 0h-1v1.7zm1 3.1h-1v-2h1 .4a1.4 1.4 0 0 1 .4.2 1 1 0 0 1 .3.3c.1.1.1.3.1.5s0 .4-.1.5l-.3.3a1.3 1.3 0 0 1-.4.1h-.4zm6.2 1.2c-.2 0-.3.1-.5.1-.6 0-1-.2-1.4-.6s-.5-.9-.5-1.5v-3h1.3v3c0 .3.1.6.3.7s.4.3.7.3a1.2 1.2 0 0 0 .5-.1c.1-.1.3-.2.4-.3s.2-.3.3-.4.1-.3.1-.5v-2.7h1v5h-1v-.6l-.2.2a2 2 0 0 1-.3.2c-.1.1-.3.1-.4.2zm5.4.1a3 3 0 0 0 .8-.1 2.3 2.3 0 0 0 .7-.3c.2-.1.4-.3.5-.5s.2-.4.2-.7 0-.5-.1-.6a1.3 1.3 0 0 0-.3-.5c-.1-.1-.3-.2-.5-.3s-.4-.2-.7-.2l-1-.3c-.3-.1-.3-.2-.3-.4 0-.1.1-.2.2-.3s.3-.1.6-.1.6 0 .8.1l.5.3.7-.9c-.2-.2-.5-.3-.8-.4s-.7-.1-1-.1a2.7 2.7 0 0 0-.7.1 2.4 2.4 0 0 0-.7.3c-.2.1-.4.3-.5.5s-.2.4-.2.7c0 .2.1.5.2.6a1.6 1.6 0 0 0 .4.4 2 2 0 0 0 .5.3 4.6 4.6 0 0 0 .5.2l.7.2a2 2 0 0 1 .4.2c.1.1.2.1.2.2a.5.5 0 0 1 0 .2c0 .2-.1.3-.2.4s-.4.1-.7.1-.6-.1-.8-.2-.4-.2-.6-.4l-.8.8c.2.3.5.5 1 .6l1.3.2zm4.5-7.3V42h-1.3v-1.3h1.3zm0 7.1v-5h-1.3v5h1.3zm2.6-2.7v2.7H67v-5h1.2v.6a2.8 2.8 0 0 1 .2-.2c.1-.1.2-.2.3-.2a2 2 0 0 1 .4-.2c.2 0 .3-.1.5-.1.6 0 1 .2 1.4.6s.5.9.5 1.5v3h-1.3v-3c0-.3-.1-.6-.3-.7s-.4-.3-.7-.3a1.2 1.2 0 0 0-.5.1c-.1.1-.3.2-.4.3s-.2.3-.3.4-.1.3-.1.5zm7 2.9c.4 0 .7 0 1-.1s.5-.2.7-.3.3-.2.4-.3l.2-.2-.7-.8-.2.2a1.5 1.5 0 0 1-.3.2c-.1.1-.3.1-.5.2s-.4.1-.6.1a1.5 1.5 0 0 1-.5-.1c-.2-.1-.3-.1-.4-.2s-.2-.2-.3-.4a1 1 0 0 1-.1-.5h3.7v-.2c0-.4 0-.7-.1-1s-.2-.6-.4-.9a2.2 2.2 0 0 0-.8-.7c-.3-.2-.7-.3-1.2-.3-.4 0-.7.1-1 .2s-.6.3-.8.6a2.5 2.5 0 0 0-.5.8 2.8 2.8 0 0 0-.2 1 3.2 3.2 0 0 0 .2 1.1c.1.3.3.6.5.9a2.5 2.5 0 0 0 .8.6c.3.1.7.2 1 .2zm-1.2-3h2.5a1.1 1.1 0 0 0-.3-.7c-.1-.1-.2-.2-.4-.3a1.2 1.2 0 0 0-.5-.1 1.4 1.4 0 0 0-.5.1 1.3 1.3 0 0 0-.4.3c-.1.1-.2.2-.2.3s-.1.3-.1.4zm6.7 3.2a3 3 0 0 0 .8-.1 2.3 2.3 0 0 0 .7-.3c.2-.1.3-.3.5-.5s.2-.4.2-.7 0-.5-.1-.6-.2-.3-.3-.5-.3-.2-.5-.3-.4-.2-.7-.2l-1-.3c-.3-.1-.3-.2-.3-.4 0-.1.1-.2.2-.3s.3-.1.6-.1.6 0 .8.1l.5.3.7-.9c-.2-.2-.5-.3-.8-.4s-.7-.1-1-.1a2.7 2.7 0 0 0-.7.1 2.4 2.4 0 0 0-.7.3c-.2.1-.4.3-.5.5s-.2.4-.2.7c0 .2.1.5.2.6a1.6 1.6 0 0 0 .4.4 2 2 0 0 0 .5.3c.2.1.4.1.5.2l.7.2c.2.1.3.1.4.2s.2.1.2.2a.5.5 0 0 1 0 .2c0 .2-.1.3-.2.4s-.4.1-.7.1-.6-.1-.8-.2-.4-.2-.6-.4l-.8.8c.2.3.5.5 1 .6l1.3.2zm6-.1c-.3.1-.5.1-.8.1-.5 0-1-.1-1.3-.2s-.7-.3-1-.6l.8-.8c.2.2.4.3.6.4s.5.2.8.2.5 0 .7-.1.2-.2.2-.4a.5.5 0 0 0 0-.2c0-.1-.1-.1-.2-.2s-.2-.1-.4-.2-.4-.1-.7-.2c-.2 0-.3-.1-.5-.2a2 2 0 0 1-.5-.3 1.6 1.6 0 0 1-.4-.4c-.1-.2-.2-.4-.2-.6s.1-.5.2-.7.3-.4.5-.5a2.4 2.4 0 0 1 .7-.3 2.7 2.7 0 0 1 .7-.1c.4 0 .8 0 1 .1s.6.2.8.4l-.7.9c-.1-.1-.3-.2-.5-.3s-.5-.1-.8-.1-.5 0-.6.1-.2.2-.2.3c0 .2.1.3.3.4s.5.2 1 .3a4 4 0 0 1 .7.2l.5.3c.1.1.3.3.3.5s.1.4.1.6-.1.5-.2.7-.3.4-.5.5a2.3 2.3 0 0 1-.7.3z"/><path fill="#fffffe" d="M26.5 10.8a.5.5 0 1 1 0-.9.5.5 0 1 1 0 .9z"/></g><path fill="#93bf3e" d="M28.8.3c-.1-.2-.2-.3-.4-.2a.4.4 0 0 0-.3.3s-.6-.3-.4 0a2.7 2.7 0 0 0 .4.6s.7 0 1-.1a3.1 3.1 0 0 0 .3-.7c.1-.4-.4 0-.5 0z"/><path fill="#fff" d="M31 10c0 1.6-1.3 2.8-2.8 2.8s-2.8-1.3-2.8-2.8a.4.4 0 0 1 .8 0c0 1.1 1 2 2 2s2-.9 2-2a.4.4 0 0 1 .8 0z"/><path fill="#93bf3e" d="M30.5 5.2L30 2c0-.1-.1-.1-.1-.2l-1.3-.6-.4.1-1 .9a.3.3 0 0 0-.1.2h0l.4 3.2 3-.3z"/><path fill="#0aaf58" d="M30 1.1c0-.3-.1-.7-.1-.7l-1 .5a.4.4 0 0 0-.3-.1c-.1 0-.3.1-.3.2l-1-.3s-.1.4 0 .7c0 .3.2.6.2.6l1-.5a.5.5 0 0 0 .3.1.4.4 0 0 0 .4-.2l1 .3a3.9 3.9 0 0 0 0-.7z"/><path fill="#e20a7e" d="M29 6l4.5-.3h.1l.3-1.4c0-.2-.1-.3-.2-.4l-4-.9c-.2 0-.3.1-.4.2L28.5 6h.6z"/><g fill="#f19021"><path d="M31.7 5.9l.6-2.2-1.2-.3-.7 2.6 1.3-.1z"/><path d="M33.6 3c0-.1-.1-.1-.1-.2-.5-.4-1.2.2-1.4.5a.3.3 0 0 0-.2-.1.3.3 0 0 0-.2 0c-.1-.3-.5-1.1-1-1-.1 0-.1 0-.2.1-.2.1-.2.3-.2.4.1.4 1 .7 1.3.8a.3.3 0 0 0 .3.3c.1 0 .3 0 .4-.2h0c.3 0 1.3.2 1.6-.2.1-.1.1-.3 0-.5zm-3.2-.3c-.1 0-.1-.1 0-.2l.1-.1c.2-.1.5.3.6.6-.3-.1-.6-.3-.7-.4zm2 .6c.5 0 1 0 1-.1 0 0 0-.1-.1-.2-.2-.2-.5.1-.8.3z" class="B"/><path d="M23.2 6.4h.1l5.8-.3h.1l-.5-2.4c0-.2-.2-.3-.4-.2L23 4.6c-.2 0-.3.2-.2.4l.3 1.5z"/></g><path fill="#fff" d="M27 3.1h0z"/><g fill="#df2127"><path d="M27.2 6.2l-.5-2.4-2 .4.5 2.1 2-.1z"/><path d="M27.2 2.5a.8.8 0 0 0-.2-.1c-.7-.1-1 .9-1 1.3h-.2c-.1 0-.1.1-.2.1-.3-.3-1-1.1-1.6-.7a1.1 1.1 0 0 0-.2.2c-.2.2-.1.4-.1.5.2.5 1.5.5 1.8.5h.1c.1.1.2.1.3.1s.2-.1.2-.2h.1c.3-.2 1.4-.7 1.4-1.2 0-.1-.1-.3-.3-.4zM24 3.7v-.2-.1c.2-.2.6.1 1 .5-.6 0-1-.1-1-.2zm3-.9c-.3 0-.5.4-.6.8.5-.3.8-.5.8-.7l-.1-.1a.9.9 0 0 0-.1 0z" class="B"/></g><path fill="#0094d9" d="M34 17.2a29 29 0 0 1 0-10.8.4.4 0 0 0-.4-.4l-10.3.6c-.2 0-.4.2-.4.4h0a30 30 0 0 1-.3 10.2c0 .2.1.3.3.4h10.8c.2 0 .3-.2.3-.4z"/><path fill="#fff" d="M30.7 8.9a.4.4 0 0 1-.4-.4c0-.2.2-.4.4-.4s.4.2.4.4-.2.4-.4.4zm-5 0a.4.4 0 0 1-.4-.4c0-.2.2-.4.4-.4s.4.2.4.4a.4.4 0 0 1-.4.4zM31 10c0 1.5-1.3 2.8-2.8 2.8s-2.8-1.3-2.8-2.8c0-.2.2-.4.4-.4s.4.2.4.4c0 1.1 1 2 2 2s2-.9 2-2c0-.2.2-.4.4-.4a.4.4 0 0 1 .4.4z"/><path fill="#0094d9" d="M61.8 7.1h0 0c-.7.4-1.3 1.2-1.5 1.9l-.1.3.3-.1c.4-.2 1.7-.2 2.8.5 1 .6 1.4 1.5 1.4 2.6 0 2.8-2 3.3-2.5 3.3-2 0-2.6-2.4-2.6-3.3V3.1h-.2c-1 0-2 .5-2.6 1.3h0v7.9c0 1.2.5 2.8 1.8 4 1 .9 2.2 1.3 3.6 1.3 1.5 0 5.3-1 5.3-5.3 0-1.3-.4-2.4-1.2-3.3-1.4-1.7-3.7-2.1-4.5-2zm13-1.2c.8 0 1.4-.6 1.4-1.4s-.6-1.4-1.4-1.4a1.4 1.4 0 1 0 0 2.8zm-1.4 2.5h0v9.2h.2c1 0 2-.5 2.6-1.2v-.1V7H76c-1 0-2 .5-2.6 1.3zM53.8 3.1a1.4 1.4 0 1 0 1.4 1.4 1.4 1.4 0 0 0-1.4-1.4zm-1.4 5.3v.1 9.2h.2c1 0 2-.5 2.6-1.2h0V7.1H55a3.3 3.3 0 0 0-2.6 1.3zM40.7 7.1h0 0c-.7.4-1.3 1.2-1.5 1.9l-.1.3.3-.1c.4-.2 1.7-.2 2.8.5 1 .6 1.4 1.5 1.4 2.6 0 2.8-2 3.3-2.5 3.3-2 0-2.6-2.4-2.6-3.3V3.1h-.2c-1 0-2 .5-2.6 1.3h0v7.9c0 1.2.5 2.8 1.8 4 1 .9 2.2 1.3 3.6 1.3 1.5 0 5.3-1 5.3-5.3 0-1.3-.4-2.4-1.2-3.3-1.4-1.7-3.7-2.1-4.5-2zM48 1.5h0v16.1h.2c1 0 2.2-.5 2.6-1.3h0V.2h-.2c-1 0-2 .5-2.6 1.3zm21 0h0v16.1h.2c1 0 2.2-.5 2.6-1.3h0V.2h-.2c-1 0-2 .5-2.6 1.3z"/></g><defs><clipPath id="B"><path fill="#fff" d="M0 0h88v48H0z"/></clipPath></defs></svg>